<svg xmlns="http://www.w3.org/2000/svg" viewBox="0 0 158.89 151.8"><defs><style>.cls-1,.cls-2{fill:#fff;}.cls-2{stroke:#312783;stroke-miterlimit:10;stroke-width:4px;}</style></defs><title>Asset 4</title><g id="Layer_2" data-name="Layer 2"><g id="Layer_1-2" data-name="Layer 1"><rect class="cls-1" x="37.93" y="24.46" width="86.27" height="95.88"/><path class="cls-2" d="M156.89,76q-.15,28.35-19.13,49.29c-10.7,11.75-24.07,19-39.49,22.54a78.29,78.29,0,0,1-18,2c-21.13-.06-40-6.4-55.62-21A68.85,68.85,0,0,1,2.53,84.87C1,70.84,2.67,57.27,8.9,44.45,17.68,26.38,31.75,14.13,50.45,7.1A83.15,83.15,0,0,1,87,2.33c15.08,1.24,28.83,6.12,40.88,15.28C143.6,29.54,153,45.34,156,64.88,156.55,68.53,156.6,72.26,156.89,76Zm-65.72-.83c13.79-9,14.61-25.54,5.88-35.58a23.29,23.29,0,0,0-33.91-1.49A22.51,22.51,0,0,0,56,55.74c.43,9,5,15.52,12.72,20C64.51,87.36,60.31,98.84,56,110.67h46.76Z"/></g></g></svg>