<svg id="Capa_1" enable-background="new 0 0 512.036 512.036" height="512" viewBox="0 0 512.036 512.036" width="512" xmlns="http://www.w3.org/2000/svg"><g><path d="m306.619 198.716c3.712 7.426 12.731 10.406 20.124 6.708l64-32c9.147-4.573 11.135-16.786 3.898-24.022l-16.557-16.557 52.042-23.13c7.57-3.364 10.979-12.229 7.615-19.799-3.364-7.571-12.231-10.978-19.799-7.615l-72 32c-9.597 4.264-11.964 16.866-4.515 24.313l17.284 17.284-45.386 22.693c-7.408 3.705-10.411 12.715-6.706 20.125z"/><path d="m140.368 350.463c-21.464-31.403-18.494-74.711 9.619-102.824 27.496-27.465 53.072-52.999 75.221-75.112l-89.048-89.048c-19.792 19.777-44.451 44.416-75.195 75.125-77.585 77.585-80.986 201.127-10.953 282.216z"/><path d="m246.437 151.33c35.64-35.587 58.306-58.242 58.933-59.009 4.16-5.069 4.619-12.471.648-18.122-1.15-1.628 4.753 4.42-69.466-69.798-5.157-5.158-13.081-5.741-18.858-1.923-1.374.903 3.562-4.037-60.315 59.794z"/><path d="m339.485 286.976c-67.284 67.284-52.754 52.755-75.074 75.074-28.101 28.101-71.402 31.107-102.83 9.625l-90.357 90.356c80.464 69.523 204.114 67.149 282.216-10.953 6.316-6.316 40.475-40.476 75.074-75.074z"/><path d="m507.642 275.664-67.815-67.815c-5.857-5.859-15.355-5.857-21.213 0-23.127 23.126-42.165 42.165-57.916 57.915l89.029 89.029 57.916-57.916c5.857-5.858 5.857-15.356-.001-21.213z"/></g></svg>